<?xml version="1.0" encoding="utf-8"?>
<!-- Generator: Adobe Illustrator 24.3.0, SVG Export Plug-In . SVG Version: 6.00 Build 0)  -->
<svg version="1.1" id="Layer_1" xmlns="http://www.w3.org/2000/svg" xmlns:xlink="http://www.w3.org/1999/xlink" x="0px" y="0px"
	 viewBox="0 0 1920 1080" style="enable-background:new 0 0 1920 1080;" xml:space="preserve">
<style type="text/css">
	.st0{fill:none;}
	.st1{font-family:'HighTowerText-Reg';}
	.st2{font-size:338px;}
	.st3{fill:#FFFFFF;}
	.st4{opacity:0.71;}
	.st5{clip-path:url(#SVGID_2_);fill:#1D1D1B;}
	.st6{opacity:0.75;}
	.st7{clip-path:url(#SVGID_4_);fill:#1D1D1B;}
	.st8{opacity:0.72;}
	.st9{clip-path:url(#SVGID_6_);fill:#2F3435;}
	.st10{opacity:0.56;clip-path:url(#SVGID_8_);}
</style>
<rect x="652.5" y="852.7" transform="matrix(0.7524 -0.6587 0.6587 0.7524 -426.2408 654.9822)" class="st0" width="11.3" height="83.5"/>
<rect x="495.3" y="332.1" class="st0" width="1065.2" height="555.8"/>
<text transform="matrix(1 0 0 1 636.9193 497.6497)" class="st1 st2">CSP</text>
<rect x="372.4" y="499.5" class="st3" width="61.6" height="19"/>
<g class="st4">
	<g>
		<defs>
			<rect id="SVGID_1_" x="226" y="224" width="449" height="386"/>
		</defs>
		<clipPath id="SVGID_2_">
			<use xlink:href="#SVGID_1_"  style="overflow:visible;"/>
		</clipPath>
		<path class="st5" d="M405.6,418.7c-6.5,2.5-13.2,4.1-20.4,4.6l-6.7,0.6l-9.4,25.8l-10.1-1.2l-1.1-27l-6.5-2.1
			c-6.5-2.1-12.8-5.2-18.2-9.1l-5.4-3.7l-28.1,12.5l-6.3-6.9l21.6-19.7l-2.7-5.4c-2.9-5.6-4.7-11.6-5.4-17.5l-0.7-5.8l-30.1-8.3
			l1.4-8.7l31.7-1l2.5-5.6c2.5-5.6,6.1-10.8,10.5-15.6l4.5-4.6l-14.8-23.9l8.1-5.4l23.3,18.5l6.3-2.3c6.5-2.3,13.2-4.1,20.2-4.6
			l7-0.6l9.2-26.1l10.1,1.2l1.4,27.4l6.3,2.1c6.5,2.1,12.6,5.2,18.2,9.1l5.4,3.7l28.1-12.9l6.3,6.9L440,333.4l2.7,5.4
			c2.7,5.6,4.7,11.4,5.4,17.4l0.9,6l30.5,7.9l-1.4,8.7l-31.9,1.2l-2.5,5.6c-2.5,5.6-6.1,10.8-10.3,15.6l-4.3,4.6l14.6,24.3l-8.1,5.4
			l-23.1-18.5L405.6,418.7z M450.5,430.9l-15-25.1l2-2.1c4.7-5.2,8.5-10.8,11.2-16.8l1.1-2.5l33-1.2l2.5-16.8l-31.4-8.1l-0.4-2.7
			c-0.9-6.4-2.7-12.7-5.8-18.7l-1.4-2.9l22.5-20.8l-11.9-13.5l-29,13.3l-2.5-1.7c-5.8-4.1-12.6-7.3-19.5-9.7l-2.9-1l-1.8-28.4
			l-19.5-2.3l-9.4,27l-3.1,0.4c-7.6,0.8-15,2.3-22,5l-2.9,1.2l-24.2-19.1l-15.7,10.2l15.5,24.7l-2,2.1c-4.7,5.2-8.5,10.8-11.5,16.8
			L305,341l-32.6,1l-2.7,16.8l31,8.5l0.4,2.7c0.9,6.6,2.9,12.9,5.8,18.9l1.4,2.5l-22.2,20.5l11.9,13.5l29-12.7l2.5,1.7
			c6.1,4.1,12.6,7.3,19.8,9.9l3.1,1l1.1,28l19.5,2.3l9.9-26.8l3.1-0.4c7.6-0.8,15-2.5,22-5l2.9-1.2l23.8,19.3L450.5,430.9z"/>
	</g>
</g>
<g class="st6">
	<g>
		<defs>
			<rect id="SVGID_3_" x="290.4" y="273" width="247.3" height="234.1"/>
		</defs>
		<clipPath id="SVGID_4_">
			<use xlink:href="#SVGID_3_"  style="overflow:visible;"/>
		</clipPath>
		<path class="st7" d="M398.8,360.2c-0.9,6.4-4.3,12.1-9.6,15.9c-4.5,3.3-9.8,4.9-15.3,4.9c-7.9,0-15.3-3.4-20.2-9.4
			c-8.5-10.5-6.3-25.5,4.7-33.6c4.5-3.2,9.8-4.9,15.3-4.9c7.9,0,15.3,3.4,20.2,9.4C397.9,347.5,399.8,353.8,398.8,360.2z
			 M396.3,340.7c-5.4-6.7-13.6-10.5-22.5-10.5c-6.3,0-12.2,1.9-17.2,5.5c-12.4,9-14.8,25.9-5.3,37.7c5.4,6.7,13.6,10.5,22.5,10.5
			c6.3,0,12.2-1.9,17.2-5.5c6.1-4.3,9.9-10.6,10.9-17.8S400.9,346.5,396.3,340.7z"/>
	</g>
</g>
<g class="st8">
	<g>
		<defs>
			<polygon id="SVGID_5_" points="654.9,216 750,536.8 441.1,564 346,243.2 			"/>
		</defs>
		<clipPath id="SVGID_6_">
			<use xlink:href="#SVGID_5_"  style="overflow:visible;"/>
		</clipPath>
		<path class="st9" d="M450,501.9l40.4,29.4l103.6-168.6c7,2,14.2,2.9,21.3,2.2c30.3-2.7,47.3-30.3,38-61.8v0l0-0.1l0,0
			c-0.1-0.4-0.3-0.8-0.6-1.3c-0.2-0.4-0.6-1-1-1.5c-0.7-0.8-1.7-1.5-2.8-1.9c-1.1-0.4-2-0.5-2.7-0.4c-1.1,0.1-1.6,0.4-2.1,0.6
			c-0.8,0.5-1.2,0.9-1.7,1.4c-0.8,0.9-1.4,1.8-2.2,3c-1.3,2-2.7,4.5-4.1,7.2c-3.2,6.1-6.5,13.1-8,16.3l-26.1,5.8l-25.6-18.6l-5-28.4
			c1.7-2.1,4.9-6.3,8.2-10.6c2.3-3.1,4.6-6.4,6.4-9.1c0.9-1.4,1.6-2.6,2.1-3.8c0.3-0.6,0.5-1.1,0.7-1.9c0.1-0.4,0.2-0.8,0.2-1.3
			c0-0.6,0.1-1.2-0.2-2.3c-0.2-0.6-0.5-1.4-1.1-2.3c-0.5-0.6-1.1-1.2-1.7-1.7c-1-0.7-1.9-1-2.7-1.2c-0.7-0.2-1.3-0.1-1.7-0.1
			c-30.3,2.7-47.3,30.3-38,61.8c2.2,7.4,5.7,14.3,10,20.5L450,501.9z"/>
	</g>
</g>
<g>
	<defs>
		<polygon id="SVGID_7_" points="61.2,534.5 42,250.3 285.4,230 304.6,514.2 		"/>
	</defs>
	<clipPath id="SVGID_8_">
		<use xlink:href="#SVGID_7_"  style="overflow:visible;"/>
	</clipPath>
	<path class="st10" d="M192.2,442.3c-1.8,5.5-2.9,11.5-3.2,17.8c-1.3,31.2,18.6,57.6,44.6,59c5.3,0.3,10.5-0.5,15.4-2.3l-30.2-40
		l31.6-34.6l29.8,39.4c1.6-5.2,2.6-10.8,2.8-16.7c1.3-31.2-18.6-57.6-44.6-59c-6.4-0.3-12.6,0.9-18.2,3.4l-65.9-87.2
		c1.8-5.5,2.9-11.5,3.2-17.8c1.3-31.2-18.6-57.6-44.6-59c-5.3-0.3-10.5,0.5-15.4,2.3l30.2,40l-31.6,34.6l-29.8-39.4
		c-1.6,5.2-2.6,10.8-2.8,16.7c-1.3,31.2,18.6,57.6,44.6,59c6.4,0.3,12.6-0.9,18.2-3.4L192.2,442.3z"/>
</g>
</svg>
